<svg xmlns="http://www.w3.org/2000/svg" version="1.1" xmlns:xlink="http://www.w3.org/1999/xlink" xmlns:svgjs="http://svgjs.dev/svgjs" viewBox="0 0 800 800" opacity="0.4"><defs><linearGradient x1="50%" y1="0%" x2="50%" y2="100%" id="uundulate-grad"><stop stop-color="hsl(90, 69%, 72%)" stop-opacity="1" offset="45%"></stop><stop stop-color="hsl(158, 74%, 51%)" stop-opacity="1" offset="100%"></stop></linearGradient></defs><g stroke-width="2" stroke="url(#uundulate-grad)" fill="none"><path d="M609.3469494796002 348.6982090641527C619.8201818591672 436.6743930621959 502.1064368803559 595.6748163421645 414.90471724137 611.3387123880909C327.702997602384 627.0026084340171 201.25192759203395 511.861094082642 190.7786952124669 423.8849100845989C180.30546283289988 335.9087260865557 277.431482180463 204.71692524341086 364.6332018194489 189.05302919748453C451.8349214584349 173.3891331515582 598.8737171000332 260.7220250661096 609.3469494796002 348.6982090641527C619.8201818591672 436.6743930621959 502.1064368803559 595.6748163421645 414.90471724137 611.3387123880909 "></path><path d="M594.3935970352566 352.3625780159739C604.1187413877117 434.0547488712997 494.81312105024404 581.697999059842 413.8400956711856 596.2430453882021C332.8670702921272 610.7880917165622 215.44821956823074 503.8709712474282 205.72307521577562 422.1788003921024C195.99793086332056 340.4866295367766 286.1863774003434 218.66567161099925 367.1594027794017 204.12062528263908C448.13242815846024 189.5755789542789 584.6684526828014 270.6704071606481 594.3935970352566 352.3625780159739C604.1187413877117 434.0547488712997 494.81312105024404 581.697999059842 413.8400956711856 596.2430453882021 "></path><path d="M579.4402445909129 356.0270080029512C588.4173009162561 431.4351657155596 487.51980522013207 567.7212428126757 412.77547410100124 581.1474394234697C338.03114298187046 594.5736360342637 229.64451154442753 495.88090944737064 220.66745521908433 420.47275173476214C211.6903988937412 345.06459402215376 294.94127262022386 232.6144790137439 369.68560373935463 219.18828240294988C444.42993485848547 205.76208579215591 570.4631882655697 280.61885029034283 579.4402445909129 356.0270080029512C588.4173009162561 431.4351657155596 487.51980522013207 567.7212428126757 412.77547410100124 581.1474394234697 "></path><path d="M564.4869226641474 359.6914379899286C572.7158909623786 428.81558255981963 480.22651990759834 553.7444865655093 411.7108830483951 566.0518334587371C343.1952461891918 578.3591803519649 243.84083403820244 487.89084764731297 235.61186573997122 418.766703077422C227.38289744174 349.6425585075309 303.6961983576824 246.56328641648855 372.2118352168857 234.25593952326074C440.72747207608893 221.94859263003286 556.2579543659161 290.5672934200375 564.4869226641474 359.6914379899286C572.7158909623786 428.81558255981963 480.22651990759834 553.7444865655093 411.7108830483951 566.0518334587371 "></path><path d="M549.5335397022257 363.35583745932786C557.014419973345 426.19596888650153 472.93317355990825 539.7676998007648 410.6462309606326 550.9561969764266C348.3592883613569 562.1446941520882 258.0370954968211 479.9007553296774 250.5562152257018 417.0606239025037C243.0753349545825 354.22049247532993 312.4510630599847 260.5120633016551 374.7380056592604 249.3235661259934C437.02494825853614 238.13506895033174 542.0526594311063 300.5157060321542 549.5335397022257 363.35583745932786C557.014419973345 426.19596888650153 472.93317355990825 539.7676998007648 410.6462309606326 550.9561969764266 "></path><path d="M534.580187257882 367.02026744630524C541.3129795018892 423.57638573076156 465.6398577297963 525.7909435535985 409.5816093904482 535.860591011694C353.5233610511001 545.9302384697895 272.2333874730179 471.9106935296197 265.5005952290105 415.35457524516346C258.7678029850032 358.79845696070714 321.2059582798652 274.4608707043997 377.26420661921327 264.3912232463042C433.32245495856137 254.32157578820875 527.8473950138746 310.4641491618489 534.580187257882 367.02026744630524C541.3129795018892 423.57638573076156 465.6398577297963 525.7909435535985 409.5816093904482 535.860591011694 "></path><path d="M519.6268348135383 370.6846974332826C525.6115390304337 420.9568025750216 458.34654189968444 511.81418730643213 408.51698782026386 520.7649850469616C358.6874337408433 529.7157827874909 286.4296794492147 463.92063172956216 280.4449752323193 413.6485265878232C274.4602710154238 363.3764214460843 329.96085349974555 288.4096781071444 379.79040757916613 279.45888036661506C429.6199616585867 270.5080826260857 513.6421305966428 320.41259229154366 519.6268348135383 370.6846974332826C525.6115390304337 420.9568025750216 458.34654189968444 511.81418730643213 408.51698782026386 520.7649850469616 "></path><path d="M504.67348236919463 374.3490663851037C509.9100985589781 418.3371583841253 451.0532260695725 497.83737002410953 407.45236625007954 505.6693180470728C363.85150643058654 513.5012660700359 300.6259714254115 455.93050889434835 295.389355235628 411.9424168953268C290.1527390458445 367.9543248963052 338.71574871962605 302.3584244747328 382.316608539119 294.5264764517696C425.917468358612 286.69452842880645 499.43686617941114 330.36097438608215 504.67348236919463 374.3490663851037C509.9100985589781 418.3371583841253 451.0532260695725 497.83737002410953 407.45236625007954 505.6693180470728 "></path><path d="M489.720129924851 378.01351163087014C494.2086580875225 415.71759048717433 443.75991023946057 483.86062903573236 406.38774467989515 490.57372734112937C369.0155791203298 497.2868256465264 314.82226340160827 447.94046235307985 310.3337352389367 410.2363834967756C305.8452070762651 372.5323046404714 347.47064393950643 316.3072471362665 384.84280949907185 309.59414883086947C422.21497505863726 302.88105052547246 485.23160176217937 340.30943277456595 489.720129924851 378.01351163087014C494.2086580875225 415.71759048717433 443.75991023946057 483.86062903573236 406.38774467989515 490.57372734112937 "></path><path d="M474.76677748050736 381.67792635905846C478.507217616067 413.0979920726453 436.46659440934866 469.88385752977695 405.3231231097108 475.4781061176078C374.179651810073 481.07235470543856 329.01855537780506 439.95038529423323 325.27811524224546 408.5303195806464C321.5376751066858 377.1102538670595 356.22553915938687 330.25603928022207 387.3690104590247 324.66179069239126C418.5124817586626 319.0675421045604 471.0263373449477 350.2578606454716 474.76677748050736 381.67792635905846C478.507217616067 413.0979920726453 436.46659440934866 469.88385752977695 405.3231231097108 475.4781061176078 "></path><path d="M459.8134097773746 385.3423410872468C462.80576188582233 410.47839365811626 429.1732633204477 455.90708602382153 404.25848628073743 460.38248489408625C379.3437092410271 464.8578837643509 343.21483209521284 431.96030823538655 340.2224799867651 406.82425566451707C337.2301278783174 381.6882030936476 364.98041912047825 344.20483142417766 389.89519616018856 339.729432553913C414.8099731998988 335.25403368364834 456.82105766892687 360.2062885163773 459.8134097773746 385.3423410872468C462.80576188582233 410.47839365811626 429.1732633204477 455.90708602382153 404.25848628073743 460.38248489408625 "></path><path d="M444.86007259182 389.0067558154351C447.1043366731558 407.85879524358717 421.87996274912484 441.9303145178662 403.1938799693421 445.2868636705647C384.5077971895594 448.6434128232632 357.4111393301987 423.9702311765399 355.1668752488629 405.1181917483878C352.9226111675271 386.26615232023573 373.73532959914775 358.15362356813324 392.4214123789305 354.79707441543474C411.10749515871316 351.44052526273623 442.6158085104842 370.154716387283 444.86007259182 389.0067558154351C447.1043366731558 407.85879524358717 421.87996274912484 441.9303145178662 403.1938799693421 445.2868636705647 "></path><path d="M429.90670488868733 392.6711552848343C431.40288094291117 405.23918157026907 414.5866316602238 427.9535277531217 402.1292431403687 430.19122718825406C389.67185462051356 432.42892662338636 371.6074160476064 415.9801388589042 370.1112399933825 403.41211257346947C368.6150639391587 390.84408628803476 382.4902095602391 372.10240045329977 394.9475980800943 369.8647010181674C407.4049865999494 367.6270015830351 428.41052883446343 380.1031289993996 429.90670488868733 392.6711552848343C431.40288094291117 405.23918157026907 414.5866316602238 427.9535277531217 402.1292431403687 430.19122718825406 "></path><path d="M414.95335244434364 396.3355852718117C415.7014404714556 402.61959841452904 407.2933158301119 413.9767715059554 401.06462157018433 415.09562122352156C394.8359273102568 416.2144709410877 385.8037080238032 407.9900770588466 385.0556199966913 401.70606391612927C384.3075319695794 395.4220507734119 391.24510478011956 386.0512078560444 397.47379904004714 384.93235813847826C403.7024932999747 383.81350842091206 414.2052644172317 390.0515721290943 414.95335244434364 396.3355852718117C415.7014404714556 402.61959841452904 407.2933158301119 413.9767715059554 401.06462157018433 415.09562122352156 "></path></g></svg>